HIERARCHY
ROOT Hips
{
	OFFSET -14.64140 90.27770 -84.91600
	CHANNELS 6 Xposition Yposition Zposition Zrotation Xrotation Yrotation
	JOINT Spine
	{
		OFFSET 0.00000 13.20850 -1.60436
		CHANNELS 3 Zrotation Xrotation Yrotation
		JOINT Spine1
		{
			OFFSET 0.00000 8.61716 0.00000
			CHANNELS 3 Zrotation Xrotation Yrotation
			JOINT Spine2
			{
				OFFSET 0.00000 8.61717 0.00000
				CHANNELS 3 Zrotation Xrotation Yrotation
				JOINT Spine3
				{
					OFFSET 0.00000 8.61717 0.00000
					CHANNELS 3 Zrotation Xrotation Yrotation
					JOINT Neck
					{
						OFFSET 0.00000 11.07920 1.10792
						CHANNELS 3 Zrotation Xrotation Yrotation
						JOINT Neck1
						{
							OFFSET 0.00000 7.08032 0.00000
							CHANNELS 3 Zrotation Xrotation Yrotation
							JOINT Head
							{
								OFFSET 0.00000 7.08031 0.00000
								CHANNELS 3 Zrotation Xrotation Yrotation
								End site
								{
									OFFSET 0.00000 0.00000 0.00000
								}
							}
						}
					}
					JOINT RightShoulder
					{
						OFFSET -0.01000 7.91373 5.19711
						CHANNELS 3 Zrotation Xrotation Yrotation
						JOINT RightArm
						{
							OFFSET -18.41580 0.00000 0.00000
							CHANNELS 3 Zrotation Xrotation Yrotation
							JOINT RightForeArm
							{
								OFFSET -29.11090 0.00000 0.00000
								CHANNELS 3 Zrotation Xrotation Yrotation
								JOINT RightHand
								{
									OFFSET -24.65040 0.00000 0.00000
									CHANNELS 3 Zrotation Xrotation Yrotation
									JOINT RightHandThumb1
									{
										OFFSET -5.35114 -0.85590 3.97906
										CHANNELS 3 Zrotation Xrotation Yrotation
										JOINT RightHandThumb2
										{
											OFFSET -4.52789 0.00000 0.00000
											CHANNELS 3 Zrotation Xrotation Yrotation
											JOINT RightHandThumb3
											{
												OFFSET -2.46976 0.00000 0.00000
												CHANNELS 3 Zrotation Xrotation Yrotation
												End site
												{
													OFFSET 0.00000 0.00000 0.00000
												}
											}
										}
									}
									JOINT RightHandIndex1
									{
										OFFSET -14.26970 0.00000 2.88139
										CHANNELS 3 Zrotation Xrotation Yrotation
										JOINT RightHandIndex2
										{
											OFFSET -5.48836 0.00000 0.00000
											CHANNELS 3 Zrotation Xrotation Yrotation
											JOINT RightHandIndex3
											{
												OFFSET -3.01859 0.00000 0.00000
												CHANNELS 3 Zrotation Xrotation Yrotation
												End site
												{
													OFFSET 0.00000 0.00000 0.00000
												}
											}
										}
									}
									JOINT RightHandMiddle1
									{
										OFFSET -14.26970 0.00000 -0.09147
										CHANNELS 3 Zrotation Xrotation Yrotation
										JOINT RightHandMiddle2
										{
											OFFSET -6.17441 0.00000 0.00000
											CHANNELS 3 Zrotation Xrotation Yrotation
											JOINT RightHandMiddle3
											{
												OFFSET -3.56743 0.00000 0.00000
												CHANNELS 3 Zrotation Xrotation Yrotation
												End site
												{
													OFFSET 0.00000 0.00000 0.00000
												}
											}
										}
									}
									JOINT RightHandRing1
									{
										OFFSET -12.69180 0.00000 -3.06433
										CHANNELS 3 Zrotation Xrotation Yrotation
										JOINT RightHandRing2
										{
											OFFSET -5.62556 0.00000 0.00000
											CHANNELS 3 Zrotation Xrotation Yrotation
											JOINT RightHandRing3
											{
												OFFSET -3.56744 0.00000 0.00000
												CHANNELS 3 Zrotation Xrotation Yrotation
												End site
												{
													OFFSET 0.00000 0.00000 0.00000
												}
											}
										}
									}
									JOINT RightHandPinky1
									{
										OFFSET -11.11390 0.00000 -6.03719
										CHANNELS 3 Zrotation Xrotation Yrotation
										JOINT RightHandPinky2
										{
											OFFSET -4.52789 0.00000 0.00000
											CHANNELS 3 Zrotation Xrotation Yrotation
											JOINT RightHandPinky3
											{
												OFFSET -2.46976 0.00000 0.00000
												CHANNELS 3 Zrotation Xrotation Yrotation
												End site
												{
													OFFSET 0.00000 0.00000 0.00000
												}
											}
										}
									}
								}
							}
						}
					}
					JOINT LeftShoulder
					{
						OFFSET 0.01000 7.91373 5.19711
						CHANNELS 3 Zrotation Xrotation Yrotation
						JOINT LeftArm
						{
							OFFSET 18.41580 0.00000 0.00000
							CHANNELS 3 Zrotation Xrotation Yrotation
							JOINT LeftForeArm
							{
								OFFSET 29.11090 0.00000 0.00000
								CHANNELS 3 Zrotation Xrotation Yrotation
								JOINT LeftHand
								{
									OFFSET 24.65040 0.00000 0.00000
									CHANNELS 3 Zrotation Xrotation Yrotation
									JOINT LeftHandThumb1
									{
										OFFSET 5.35114 -0.85590 3.97906
										CHANNELS 3 Zrotation Xrotation Yrotation
										JOINT LeftHandThumb2
										{
											OFFSET 4.52789 0.00000 0.00000
											CHANNELS 3 Zrotation Xrotation Yrotation
											JOINT LeftHandThumb3
											{
												OFFSET 2.46977 0.00000 0.00000
												CHANNELS 3 Zrotation Xrotation Yrotation
												End site
												{
													OFFSET 0.00000 0.00000 0.00000
												}
											}
										}
									}
									JOINT LeftHandIndex1
									{
										OFFSET 14.26970 0.00000 2.88139
										CHANNELS 3 Zrotation Xrotation Yrotation
										JOINT LeftHandIndex2
										{
											OFFSET 5.48836 0.00000 0.00000
											CHANNELS 3 Zrotation Xrotation Yrotation
											JOINT LeftHandIndex3
											{
												OFFSET 3.01859 0.00000 0.00000
												CHANNELS 3 Zrotation Xrotation Yrotation
												End site
												{
													OFFSET 0.00000 0.00000 0.00000
												}
											}
										}
									}
									JOINT LeftHandMiddle1
									{
										OFFSET 14.26970 0.00000 -0.09147
										CHANNELS 3 Zrotation Xrotation Yrotation
										JOINT LeftHandMiddle2
										{
											OFFSET 6.17440 0.00000 0.00000
											CHANNELS 3 Zrotation Xrotation Yrotation
											JOINT LeftHandMiddle3
											{
												OFFSET 3.56744 0.00000 0.00000
												CHANNELS 3 Zrotation Xrotation Yrotation
												End site
												{
													OFFSET 0.00000 0.00000 0.00000
												}
											}
										}
									}
									JOINT LeftHandRing1
									{
										OFFSET 12.69180 0.00000 -3.06433
										CHANNELS 3 Zrotation Xrotation Yrotation
										JOINT LeftHandRing2
										{
											OFFSET 5.62556 0.00000 0.00000
											CHANNELS 3 Zrotation Xrotation Yrotation
											JOINT LeftHandRing3
											{
												OFFSET 3.56744 0.00000 0.00000
												CHANNELS 3 Zrotation Xrotation Yrotation
												End site
												{
													OFFSET 0.00000 0.00000 0.00000
												}
											}
										}
									}
									JOINT LeftHandPinky1
									{
										OFFSET 11.11390 0.00000 -6.03719
										CHANNELS 3 Zrotation Xrotation Yrotation
										JOINT LeftHandPinky2
										{
											OFFSET 4.52789 0.00000 0.00000
											CHANNELS 3 Zrotation Xrotation Yrotation
											JOINT LeftHandPinky3
											{
												OFFSET 2.46976 0.00000 0.00000
												CHANNELS 3 Zrotation Xrotation Yrotation
												End site
												{
													OFFSET 0.00000 0.00000 0.00000
												}
											}
										}
									}
								}
							}
						}
					}
					JOINT pCube4
					{
						OFFSET 0.00000 10.91090 1.10792
						CHANNELS 3 Zrotation Xrotation Yrotation
						End site
						{
							OFFSET 0.00000 0.00000 0.00000
						}
					}
				}
			}
		}
	}
	JOINT RightUpLeg
	{
		OFFSET -9.98441 0.00000 0.00000
		CHANNELS 3 Zrotation Xrotation Yrotation
		JOINT RightLeg
		{
			OFFSET 0.00000 -42.11790 0.00000
			CHANNELS 3 Zrotation Xrotation Yrotation
			JOINT RightFoot
			{
				OFFSET 0.00000 -45.00020 -0.00001
				CHANNELS 3 Zrotation Xrotation Yrotation
				JOINT RightForeFoot
				{
					OFFSET 0.00000 -3.74820 0.00000
					CHANNELS 3 Zrotation Xrotation Yrotation
					JOINT RightToeBase
					{
						OFFSET 0.00000 0.06325 14.43120
						CHANNELS 3 Zrotation Xrotation Yrotation
						End site
						{
							OFFSET 0.00000 0.00000 0.00000
						}
					}
				}
			}
		}
	}
	JOINT LeftUpLeg
	{
		OFFSET 9.98441 0.00000 0.00000
		CHANNELS 3 Zrotation Xrotation Yrotation
		JOINT LeftLeg
		{
			OFFSET 0.00000 -42.11800 0.00000
			CHANNELS 3 Zrotation Xrotation Yrotation
			JOINT LeftFoot
			{
				OFFSET 0.00000 -45.00070 0.00000
				CHANNELS 3 Zrotation Xrotation Yrotation
				JOINT LeftForeFoot
				{
					OFFSET 0.00000 -3.74824 0.00000
					CHANNELS 3 Zrotation Xrotation Yrotation
					JOINT LeftToeBase
					{
						OFFSET 0.00000 0.06325 14.43110
						CHANNELS 3 Zrotation Xrotation Yrotation
						End site
						{
							OFFSET 0.00000 0.00000 0.00000
						}
					}
				}
			}
		}
	}
}
MOTION
Frames: 4
Frame Time: 0.050000
0.01829369758667413 0.0032477017952607934 0.011698610197959118 -0.010838242277442537 0.03675352972368609 -0.004319447748922129 1.9583765928118504 4.5217654208963465 -1.4630817406829486 -0.5957719278111645 3.828538433163264 0.38959000269820687 -0.6946836720041124 -1.3307559260540152 1.4184289505761392 -0.7085336955059427 -0.22321337771756658 -0.2614526646308426 -0.01000802032940156 13.938746853766744 -1.170050964020469 0.12892913647626159 -0.5891465052860828 -4.544699331496232 0.6955617409317805 -16.775269464365856 -0.3609321684088533 -7.4421669422363275 2.8333894402990856 -14.88692087367443 74.56284809683078 11.012741901361839 19.624805687573033 6.908857092333005 -3.883325760278865 86.8145952075895 21.638191175911963 -0.5673401687308883 -4.604589503426471 4.488131150894478 -0.09366606972499075 -1.6083835158443558 0.01915418943065292 -0.010876764416816948 -56.227971699720975 0.02420781401778608 0.035752409931056016 -56.189599942167966 -38.804627927761466 0.019447928881830133 0.01237938640066081 0.04521538133627207 -0.0030095082154706593 -0.02529004266422094 0.01408450567786564 0.030866101530273006 -9.166516739997154e-05 -36.679580770678164 -0.04127243336191676 0.0009029758955854684 -0.029323507264022546 -0.03239147398094395 0.021844941346285302 -0.03636253427304019 -0.032481669419931976 0.010539384666455239 -19.757411772669293 0.04765316689783523 -0.0004971852771636847 0.01349744992316206 -0.002816131127835998 -0.038195648081980504 -0.018756970781099645 -0.00911889822815163 -0.03921396083682394 24.0902784117548 -0.0005835543519725306 -0.009697591293540135 28.900998688319014 -0.013039108158378885 0.008926574713256042 28.85524929702544 0.014670928196793564 -0.04716207028145416 7.421653950830243 1.9476977687686454 13.686103207535181 -72.29861409460815 21.531043575526716 -14.911516564661746 -7.4463837879256465 1.8014215740703288 -72.07979154986708 -20.723684059624006 4.114210474534922 -3.159625408667147 -0.4413467990575531 0.03789917152525009 -8.138479426417296 0.0026203600836125283 -9.366285445935806e-05 44.596020922488364 -0.028108717010614803 -0.0330177423354488 44.5608368088224 12.476074600727626 -0.03253479590841342 -0.02031375701721693 0.02621852999717695 0.023798526273603102 0.01402272434334575 -0.04289437808710817 0.033588761806911005 -0.03168807560338219 11.10324354366594 0.021774106377633 0.024881417070286793 -0.040536126648219456 -0.04017660645063386 0.010995114083682207 -0.0045744403206562185 0.0037243311803266356 -0.04847737488139259 4.744707027605558 -0.03750534858625106 -0.045912008970323936 -0.0052196644343779075 0.014209500819178822 0.014764753068816583 0.037998140428763 -0.019637776557471082 0.030033010425103077 -5.5684484254437505 0.01956978758764212 0.02654994710292525 -6.707506208651137 0.03086766300991058 -0.02397254289768896 -6.673408695441189 0.04768800586716721 0.041001781880859914 -0.025684410163995686 0.021169782029610222 0.021277611280266676 8.081015702852843 3.5263236535112603 -19.217991035179587 0.01391538722172714 10.399366397553187 0.0003511120202335065 -5.575717992599275 -15.624191912774192 3.228347875968335 0.03078514991742648 0.01925119070323439 -0.03357259366657643 0.006755258551803222 4.7462691874845 -0.04500126983096134 12.437307818000079 -8.255757070288556 6.878928888314697 -0.01514685997257938 46.35810394098112 0.03447576051457619 -4.321498109787365 -14.772265422412936 -3.860400861751245 0.03901880348126493 -0.02103782502573382 -0.01617709577874472 0.028546661485243555 -10.726662490967596 0.04969716671653925 
0.01659477781572394 -0.03374831714322173 -0.041661586572687856 0.03363750987381075 0.037169797127434005 0.00825540185939294 2.081112784921624 4.601990494753961 -1.4874029265832325 -0.6449195560124408 3.8211907232974793 0.3724221052977505 -0.7272362322288011 -1.25646219661744 1.4619104186190093 -0.5652394860103811 -0.1843952779276452 -0.3054091078579145 0.06598422667665269 13.758828709619905 -1.390568516536673 0.1398207768117274 -0.5629857198584888 -4.994940260204743 0.6964557229914874 -16.620098610819014 -0.4096073495054424 -7.010046009193733 2.6937249697870893 -14.909670313198736 73.85837478340035 12.243270824810883 18.118951245575044 5.964547496518478 -3.9326538037805703 87.55732356712261 21.741477115376654 -0.6068301305785866 -4.75223465404731 4.570726545078309 -0.11834106449195975 -1.6032448994664255 -0.0289237849234732 0.033495670215974466 -56.275700658876026 0.014305446119749848 -0.030134301193347986 -56.23025262302104 -38.76661706884585 0.0352558830594049 -0.03615998426092 0.01362613532927115 0.009970821274523978 0.015057038509083987 -0.03918411234347407 -0.023090159608623602 -0.022805020427745144 -36.65840267592197 0.019103264393466077 -0.004817354838749281 0.004261003807572385 0.005320912281284351 -0.005149012731596189 -0.012063989172852474 -0.00023932479191708783 -0.005602358316687021 -19.750932110015057 -0.01833003558734902 -0.03539983728662781 -0.04415031600253375 -0.02773796585572724 0.02486350875085756 0.01603278200285911 0.01977000529869011 0.009193014376357916 24.061605956606982 0.001198460956884915 0.0015548698234108872 28.879733391190413 -0.008143670942120035 -0.014625604371496414 28.86546736868253 0.04803085756761892 -0.04235344614769134 6.950796817072731 1.8605444832880882 13.705614314607944 -72.1055318172522 22.14329725722056 -13.797459860470125 -6.81595743380558 2.505780181332925 -71.33902004925284 -20.810975054075353 4.338441898876718 -3.243219682650522 -0.5039254974501178 0.0899872982123537 -8.112363654268668 -0.038108903163423115 0.038740464601905146 44.5949934024962 0.012148354942097693 0.016345700064082393 44.57507662882396 12.478311034404035 -0.018273738514294723 0.013321769794002056 -0.02472834632007107 0.04505785541194355 -0.03529510315848711 -0.007985498279235245 -0.016493408837968675 0.03033433782476289 11.13344875729731 0.03496413551786758 0.024099849156126105 0.009961354345795443 -0.0033852532639227105 -0.023749774233863312 -0.019419408838731684 0.026715712452314334 0.03816904723399166 4.8148929387382235 -0.01524273142148986 -0.009271933000102612 -0.0016513838110919581 -0.006646363542157925 -0.008290732111636518 0.02387018833072989 -0.030690024213184702 -0.006210487834036081 -5.644281874350369 -0.011631627524563122 -0.006189502328429859 -6.7039845800581075 0.04302378339787849 -0.032291176338429 -6.753702363872695 0.014848173486590116 0.0006298538403338695 -0.028543326977591883 0.022399498189796356 -0.0275436487349604 8.062299741241619 3.4553148691061915 -19.20778746416083 -0.0037996100996681432 10.356182786022849 -0.021999752402052385 -5.62899007606713 -15.68599766791351 3.223375880871002 -0.022982520671812983 0.011666823627512701 0.027493901507054042 -0.011238228861313204 4.720655253272781 -0.01708646744475471 12.480911680180213 -8.225072731642294 6.911565123691842 0.018214506823252482 46.37317351364121 -0.01641475929717082 -4.316218409139944 -14.706374670393592 -3.8213188936405413 0.016240590040919198 0.00566895588631271 0.04281717238046133 -0.007291318456219126 -10.760887933220456 -0.048797528254541325 
0.0059393561222369625 0.022310412010374994 -0.04465829200079393 -0.01933597039787788 0.04961849568038938 0.035424780069649615 2.1467021075965818 4.6888124034649366 -1.5042205418836814 -0.6047902688091832 3.801200569191654 0.3896009997329443 -0.714483983291365 -1.166458159260258 1.3559265146689807 -0.5383221524221132 -0.14687132855709437 -0.28868209444584836 0.07469239535091922 13.7077554106001 -1.5241855495000565 0.07642199249276672 -0.4217562668655845 -5.304978961713502 0.7357263151862878 -16.426669926234272 -0.4585960524873831 -6.593110267075019 2.6294899192160837 -15.089597549349184 73.30575648123232 13.299992996559519 15.906093885990007 5.070947369043232 -3.1106455262813197 85.91362475465976 22.335541183232625 -0.54516545857946 -4.866877039810875 4.528828342481812 -0.13299620357772343 -1.5791978161077063 0.022448628833899947 -0.00850827217905523 -56.22428636195066 -0.023350554569138905 0.047391853107412646 -56.26690544383138 -38.76251415778575 -0.01772394846639648 0.021001568941387213 -0.03382444996843233 -0.03970274713156106 -0.04460222361365459 0.04191980538725862 -0.0005570347246487107 0.033235563203846234 -36.7176795768402 0.0115226816271565 0.018852720128371456 -0.007395102435550893 0.027602614878452267 -0.014461392476947641 0.022579291438117766 0.028263462456340097 0.030227327790095876 -19.71893223798046 0.015319384703671944 0.028391406512700723 0.04240719888860432 0.0009970964867325979 0.014278103268139337 -0.013066052783579755 -0.021473302324928147 -0.03837588428518704 24.045981554105403 0.009705785576095497 -0.02154161987612739 28.896544755508522 0.001563791639164722 0.00476360401062273 28.87594822809665 -0.043222696485310165 0.0009331624324731365 6.518676975266412 1.8752384481030684 13.818825975315553 -71.77314094954563 22.412786021059283 -12.642448661654516 -5.541186758445317 3.2601146373997842 -69.33918180401209 -21.03356177879375 4.714542502064831 -3.3840039769909693 -0.5225625927686454 0.10722614356553443 -8.081647574258566 -0.007857004375473979 -0.025897745079470774 44.587572558488766 -0.0010971606764294285 -0.015327320161784445 44.51768844561883 12.482429167172638 0.04146526732953667 -0.026294845288907166 0.008060173932748148 -0.023202742159959714 0.04892160286640351 -0.014058539629629423 0.04313479567216104 -0.005861005854085687 11.12926910644277 0.014437961554128253 -0.015160583247489928 -0.015188191299657133 0.003248664352687978 0.03054762068661454 -0.03920510709249465 0.02456551983465985 -0.00021574804324946744 4.723940997662526 -0.027524378427729045 0.002000101409553904 0.0031096503849930308 0.028219496972010323 0.007615734774861845 -0.012782429225476417 0.029021978371508748 0.024256985119885326 -5.59899443071073 0.015399149389216299 -0.036784154949169756 -6.736795004182088 -0.02412235770615836 -0.03649907048216541 -6.713427836924367 -0.02085460896313926 -0.015921187658664904 -0.0455507231022928 0.02202637501336439 0.001617540019238699 8.039841446546024 3.4801041854645822 -19.17813791241526 0.02531170622215067 10.353143142190131 0.06151499162507773 -5.659582592138335 -15.653479281863481 3.224830532039606 -0.03470769669745013 -0.037360665309814196 0.0368868872907724 -0.013757790104982258 4.712700156188617 -0.04899548328090369 12.437905658548914 -8.201836135065047 6.910644269608658 0.0002444582112061783 46.36121986071127 -0.02432340691426092 -4.344585194018065 -14.72741577085916 -3.8758293255731155 -0.03215821216409495 0.01198343509233422 -0.029214358646237996 0.02435430177715565 -10.737489939442716 0.03512656504777403 
0.00015646879576444348 0.019088527453506247 -0.009277970745210412 -0.01267609342822455 -0.025065006943241975 0.0061891008536134615 2.1225971251091993 4.681173754632372 -1.5149968722301952 -0.6533765474114293 3.7891093199940316 0.385421127824606 -0.7389784269247579 -1.1425674319457397 1.3155440464780808 -0.466124219954603 -0.15331069442650624 -0.2745946601467325 0.07828993938891385 13.532240803361502 -1.6222210116713887 0.1054936939846815 -0.38439897010100355 -5.475646385685697 0.7402133268573009 -16.14675855192312 -0.4845350587475773 -6.094121223966106 2.5042733430791433 -15.153458216039752 72.8465480720687 14.547777082793287 13.281106952285938 4.09389000752 -1.564196760063457 82.94476302200961 23.463882807777726 -0.5287800858278319 -5.041966742404623 4.4984814080920685 -0.09022119629065009 -1.570054041198826 0.0195103959257363 0.018613287764243137 -56.18623940385672 0.0008293250795793867 -0.0184407823875916 -56.19587708520436 -38.81557105579345 0.024109814487412815 -0.005705038350892422 0.037624830484878094 -0.010183185787792728 0.0015090433659003242 -0.03325218118767898 -0.042179326596795345 0.01547511214062837 -36.7194494923447 -0.04976743108053179 0.01397380676998616 -0.0006185934453233372 -0.01271858860187191 0.009793693079266377 0.0494970170508897 -0.02579331606135604 -0.03131810886163518 -19.7426527990754 0.028927868648328206 0.02446147255858457 0.0038619670954655404 -0.0340660718259434 0.04096407924726098 -0.01996532926710009 0.005629892621560071 -0.008456620144599093 24.061283110810603 0.022375183141650018 -0.024489308936291802 28.838033114438584 -0.011318319935523518 -0.0006685526905469794 28.837254499137117 0.03331448485006654 -0.016862403246653307 6.16801711862116 1.7691153892941884 13.847446495737865 -71.44914952292163 22.63094124740653 -11.679607434011858 -4.138250287777952 3.7126666029304647 -67.60785047452609 -21.290488185072014 5.274062804455283 -3.5844142154666243 -0.4328797485629308 0.0360416466567683 -8.117055856581477 0.008747780213444963 0.010792024140672664 44.565881864171686 0.02185800142677443 0.024623379001037383 44.590974904712574 12.474797738150624 -0.04338802700287216 0.029568421886229074 0.04065677809864239 0.006645132370077001 0.004641102525668804 0.04598838661889012 0.024205318486367304 -0.03232531403558978 11.07058961061865 0.03984890059292728 0.02617808584340481 0.04518057155725885 -0.037660721824288465 -0.010115482536365678 -0.023616081878876406 0.043913740899299905 0.046693566901014893 4.81552652652126 -0.0021761669861415658 -0.028737308387412404 0.042302378219241744 0.006476725807169777 0.03071040472488709 -0.039455647867650684 0.0189548919075942 -0.0071678269382546966 -5.586487978366877 -0.026309730227445476 0.026124250577043668 -6.6724290560326365 0.03149259064661777 0.00827715752093127 -6.6787657352307255 -0.008433653876681248 -0.04729212284358077 -0.022679780842857298 -0.03024792486276483 0.042227694142052734 8.042836539001406 3.528975713793314 -19.241164877058893 -0.0232355130726199 10.411630120387011 0.012034562471877579 -5.629310093727333 -15.694995171782129 3.1974398768535788 -0.009745984722650125 0.021722152028603708 -0.012007256971072232 -0.03545285206737216 4.744413677433151 0.0022355660695220006 12.429905571917846 -8.205544247310632 6.922444773914114 0.03484266615722774 46.34249834285672 0.045576233331724655 -4.324548289089112 -14.763036467071515 -3.7971512571224117 -0.016624411414227127 -0.04715383880522762 0.011212650107613374 -0.0238493125102561 -10.735425954685338 -0.03434207051522791 
